<svg version="1.1" id="lemonbar-header-bg" xmlns="http://www.w3.org/2000/svg" xmlns:xlink="http://www.w3.org/1999/xlink" x="0px" y="0px"
	 viewBox="0 0 1259.4 364.5" enable-background="new 0 0 1259.4 364.5" xml:space="preserve">
<g id="XMLID_1_">
	<g>
		<path fill="#91D745" stroke="#91D745" stroke-width="4" stroke-miterlimit="10" d="M1224.8,146.4c16.1,4.4,24.5,21.5,24.5,37.6
			c0,16.2-8.4,33-24.5,37.4c-4.4,14.2-19.2,23.1-33.9,24.5v44.7c0,15.2-7.2,22.3-23.3,22.3v-7.1c11.2,0,16.4-4.7,16.4-15.2v-44.7
			c-14-1.2-29.2-10.9-34.2-24.5c-15.9-4.3-24.5-21.1-24.5-37.4c0-16.1,8.5-33.2,24.5-37.6c4.7-14.1,19.6-23.1,34.2-24.3V75.9
			c0-10.6-5.2-15.2-16.4-15.2v-7.1c16.1,0,23.3,6.9,23.3,22.3v46.1C1205.4,123.3,1220.3,132.7,1224.8,146.4z M1242.4,184
			c0-11.6-6.2-24.5-16.4-29.6c0,0.3,0.2,0.4,0.2,0.4s-0.2,0-0.2,0.3c0,11.6-6.5,27.6-21.4,27.6c-10.6,0-15.8-6.9-15.8-14.9
			c0-10.2,9.1-22.4,27.4-22.4h0.9c-5-10.6-17.8-16.5-29.8-16.5c-11.9,0-24.8,5.9-29.6,16.5h0.6c18.3,0,27.4,12.2,27.4,22.4
			c0,8-5.2,14.9-15.6,14.9c-14.9,0-21.5-15.9-21.5-28.3c-10.5,4.9-16.4,17.8-16.4,29.6c0,11.9,5.9,24.8,16.4,29.6
			c0-12.5,6.6-28.4,21.5-28.4c10.2,0,15.6,7.4,15.6,15.8c0,10-8.2,21.5-27.4,21.5h-0.6c4.9,10.6,17.5,16.5,29.6,16.5
			c11.8,0,24.8-5.9,29.8-16.5c-0.3,0-0.3,0.1-0.4,0.1c0,0,0-0.1-0.4-0.1c-19,0-27.4-11.5-27.4-21.5c0-8.4,5.6-15.8,15.8-15.8
			c14.9,0,21.4,15.9,21.4,28.6C1236.2,208.6,1242.4,195.8,1242.4,184z M1219.1,215.5v-2.8c0-8.8-4.4-20.6-14.4-20.6
			c-5.8,0-8.8,4.1-8.8,8.9c0,6.6,6.2,14.6,20.5,14.6H1219.1z M1219.1,155.1v-2.7c-0.7-0.1-2.1-0.1-2.8-0.1
			c-13.6,0-20.5,8.5-20.5,15.5c0,4.4,2.9,8,8.8,8C1214.7,175.7,1219.1,163.9,1219.1,155.1z M1170.2,175.7c5.8,0,8.7-3.5,8.7-8
			c0-6.9-6.9-15.5-20.5-15.5c-0.6,0-1.9,0-2.7,0.1v2.7C1155.7,163.9,1160,175.7,1170.2,175.7z M1178.9,200.9c0-4.7-3.1-8.9-8.7-8.9
			c-10.2,0-14.4,11.8-14.4,20.6v2.7c1,0.1,1.8,0.1,2.7,0.1C1172.8,215.5,1178.9,207.6,1178.9,200.9z"/>
		<path fill="#91D745" stroke="#91D745" stroke-width="4" stroke-miterlimit="10" d="M1219.1,212.7v2.8h-2.8
			c-14.3,0-20.5-8-20.5-14.6c0-4.7,3.1-8.9,8.8-8.9C1214.7,192.1,1219.1,203.9,1219.1,212.7z"/>
		<path fill="#91D745" stroke="#91D745" stroke-width="4" stroke-miterlimit="10" d="M1219.1,152.4v2.7c0,8.8-4.4,20.6-14.4,20.6
			c-5.9,0-8.8-3.5-8.8-8c0-6.9,6.9-15.5,20.5-15.5C1217,152.3,1218.4,152.3,1219.1,152.4z"/>
		<path fill="#91D745" stroke="#91D745" stroke-width="4" stroke-miterlimit="10" d="M1178.9,167.8c0,4.4-2.9,8-8.7,8
			c-10.2,0-14.4-11.8-14.4-20.6v-2.7c0.7-0.1,2.1-0.1,2.7-0.1C1171.9,152.3,1178.9,160.8,1178.9,167.8z"/>
		<path fill="#91D745" stroke="#91D745" stroke-width="4" stroke-miterlimit="10" d="M1170.2,192.1c5.6,0,8.7,4.1,8.7,8.9
			c0,6.6-6,14.6-20.5,14.6c-0.9,0-1.6,0-2.7-0.1v-2.7C1155.7,203.9,1160,192.1,1170.2,192.1z"/>
		<path fill="#91D745" stroke="#91D745" stroke-width="4" stroke-miterlimit="10" d="M1167.7,305.7v7.1h-74.7
			c-4.3,0-7.5,0.7-10.3,1.9c3.1,4,4.6,8.7,4.6,12.7c0,6.9-4.1,13-10.3,13c-6.3,0-10.3-5.9-10.3-13c0-4,1.5-8.7,4.7-12.7
			c-2.6-1-6.2-1.9-10.2-1.9h-74.6v-7.1h74.6c6.8,0,11.8,1.6,15.8,4.1c4-2.4,9.3-4.1,16.1-4.1H1167.7z M1080.8,327.4
			c0-2.9-1.3-7.5-3.7-10.2c-2.7,2.8-4.1,7.4-4.1,10.3c0,3.2,1.8,6.6,3.8,6.6C1078.9,334.2,1080.8,330.8,1080.8,327.4z"/>
		<path fill="#91D745" stroke="#91D745" stroke-width="4" stroke-miterlimit="10" d="M1167.7,53.7v7.1h-74.7
			c-6.8,0-12.1-1.8-16.1-4.1c-4,2.5-9,4.1-15.8,4.1h-74.6v-7.1h74.6c4,0,7.5-0.9,10.2-1.9c-3.2-4-4.7-8.7-4.7-12.7
			c0-7.1,4-13,10.3-13c6.2,0,10.3,6,10.3,13c0,4-1.5,8.7-4.6,12.7c2.8,1.2,6,1.9,10.3,1.9H1167.7z M1077.2,49.3
			c2.4-2.7,3.7-7.2,3.7-10.2c0-3.4-1.9-6.8-4-6.8c-2.1,0-3.8,3.4-3.8,6.6C1073,41.9,1074.5,46.5,1077.2,49.3z"/>
		<rect x="899.8" y="305.7" fill="#91D745" stroke="#91D745" stroke-width="4" stroke-miterlimit="10" width="86.7" height="7.1"/>
		<rect x="899.8" y="53.7" fill="#91D745" stroke="#91D745" stroke-width="4" stroke-miterlimit="10" width="86.7" height="7.1"/>
		<path fill="#91D745" stroke="#91D745" stroke-width="4" stroke-miterlimit="10" d="M899.8,305.7v7.1c-5.6,0-9.4,0.6-12.2,1.8
			c3.1,3.8,4.7,8.7,4.7,12.8c0,7.1-4.1,12.7-10.5,12.7c-6.2,0-10.3-5.6-10.3-12.7c0-4.1,1.6-9,4.7-12.8c-3.4-1.5-7.7-2.2-12.1-2.2
			c-4.6,0-9.1,0.7-12.7,2.2c3.1,3.8,4.7,8.7,4.7,12.8c0,7.1-4.1,12.7-10.5,12.7c-6.2,0-10.3-5.6-10.3-12.7c0-4.1,1.6-9,4.7-12.8
			c-3.4-1.5-7.7-2.2-11.9-2.2c-4.4,0-9,0.7-12.5,2.2c3.1,3.8,4.7,8.7,4.7,12.8c0,7.1-4.1,12.7-10.5,12.7c-6.2,0-10.3-5.6-10.3-12.7
			c0-4.1,1.6-9,4.7-12.8c-3.4-1.5-7.7-2.2-12.1-2.2s-9,0.7-12.5,2.2c3.1,3.8,4.7,8.7,4.7,12.8c0,7.1-4.1,12.7-10.5,12.7
			c-6.2,0-10.3-5.6-10.3-12.7c0-4.1,1.6-9,4.7-12.8c-3.4-1.5-7.7-2.2-12.1-2.2c-4.4,0-9,0.7-12.5,2.2c3.1,3.8,4.7,8.7,4.7,12.8
			c0,7.1-4.1,12.7-10.5,12.7c-6.2,0-10.3-5.6-10.3-12.7c0-4.1,1.6-9,4.7-12.8c-3.4-1.5-7.7-2.2-11.9-2.2c-4.4,0-9,0.7-12.5,2.2
			c3.1,3.8,4.7,8.7,4.7,12.8c0,7.1-4.1,12.7-10.5,12.7c-6.2,0-10.3-5.6-10.3-12.7c0-4.1,1.6-9,4.7-12.8c-2.8-1.2-6.6-1.8-12.2-1.8
			v-7.1c8.4,0,13.7,1.5,17.8,4c4.9-2.9,11.2-4.3,17.7-4.3s13,1.3,18.1,4.3c4.9-2.9,11.3-4.3,17.8-4.3c6.5,0,13,1.3,18.1,4.3
			c4.9-2.9,11.3-4.3,17.8-4.3c6.5,0,13,1.3,18.1,4.3c4.9-2.9,11.2-4.3,17.7-4.3c6.5,0,13,1.3,18.1,4.3c4.9-2.9,11.5-4.3,18-4.3
			c6.5,0,13,1.3,18.1,4.3C886.1,307.2,891.4,305.7,899.8,305.7z M885.8,327.4c0-2.9-1.3-7.7-4-10.5c-2.6,2.8-3.8,7.5-3.8,10.5
			c0,3.1,1.8,6.3,3.8,6.3C884.1,333.7,885.8,330.5,885.8,327.4z M849.7,327.4c0-2.9-1.3-7.7-4-10.5c-2.7,2.8-3.8,7.5-3.8,10.5
			c0,3.1,1.8,6.3,3.8,6.3C847.9,333.7,849.7,330.5,849.7,327.4z M813.9,327.4c0-2.9-1.3-7.7-4-10.5c-2.7,2.8-3.8,7.5-3.8,10.5
			c0,3.1,1.8,6.3,3.8,6.3C812.1,333.7,813.9,330.5,813.9,327.4z M777.9,327.4c0-2.9-1.3-7.7-4-10.5c-2.7,2.8-3.8,7.5-3.8,10.5
			c0,3.1,1.8,6.3,3.8,6.3C776.2,333.7,777.9,330.5,777.9,327.4z M742,327.4c0-2.9-1.3-7.7-4-10.5c-2.7,2.8-3.8,7.5-3.8,10.5
			c0,3.1,1.8,6.3,3.8,6.3C740.2,333.7,742,330.5,742,327.4z M706.1,327.4c0-2.9-1.3-7.7-4-10.5c-2.7,2.8-3.8,7.5-3.8,10.5
			c0,3.1,1.8,6.3,3.8,6.3C704.4,333.7,706.1,330.5,706.1,327.4z"/>
		<path fill="#91D745" stroke="#91D745" stroke-width="4" stroke-miterlimit="10" d="M899.8,53.7v7.1c-8.4,0-13.7-1.5-18-4
			c-5.2,2.9-11.6,4.3-18.1,4.3c-6.5,0-13.1-1.3-18-4.3c-5.2,2.9-11.7,4.3-18.1,4.3c-6.5,0-12.8-1.3-17.7-4.3
			c-5.2,2.9-11.7,4.3-18.1,4.3c-6.5,0-13-1.3-17.8-4.3c-5.2,2.9-11.6,4.3-18.1,4.3c-6.5,0-13-1.3-17.8-4.3
			c-5.2,2.9-11.6,4.3-18.1,4.3s-12.8-1.3-17.7-4.3c-4.1,2.5-9.4,4-17.8,4v-7.1c5.6,0,9.4-0.6,12.2-1.8c-3.1-3.8-4.7-8.7-4.7-12.8
			c0-7.1,4.1-12.7,10.3-12.7c6.3,0,10.5,5.6,10.5,12.7c0,4.1-1.6,9-4.7,12.8c3.5,1.5,8.1,2.2,12.5,2.2c4.3,0,8.5-0.7,11.9-2.2
			c-3.1-3.8-4.7-8.7-4.7-12.8c0-7.1,4.1-12.7,10.3-12.7c6.3,0,10.5,5.6,10.5,12.7c0,4.1-1.6,9-4.7,12.8c3.5,1.5,8.1,2.2,12.5,2.2
			c4.4,0,8.7-0.7,12.1-2.2c-3.1-3.8-4.7-8.7-4.7-12.8c0-7.1,4.1-12.7,10.3-12.7c6.3,0,10.5,5.6,10.5,12.7c0,4.1-1.6,9-4.7,12.8
			c3.5,1.5,8.1,2.2,12.5,2.2s8.7-0.7,12.1-2.2c-3.1-3.8-4.7-8.7-4.7-12.8c0-7.1,4.1-12.7,10.3-12.7c6.3,0,10.5,5.6,10.5,12.7
			c0,4.1-1.6,9-4.7,12.8c3.5,1.5,8.1,2.2,12.5,2.2c4.3,0,8.5-0.7,11.9-2.2c-3.1-3.8-4.7-8.7-4.7-12.8c0-7.1,4.1-12.7,10.3-12.7
			c6.3,0,10.5,5.6,10.5,12.7c0,4.1-1.6,9-4.7,12.8c3.5,1.5,8.1,2.2,12.7,2.2c4.4,0,8.7-0.7,12.1-2.2c-3.1-3.8-4.7-8.7-4.7-12.8
			c0-7.1,4.1-12.7,10.3-12.7c6.3,0,10.5,5.6,10.5,12.7c0,4.1-1.6,9-4.7,12.8C890.4,53.1,894.2,53.7,899.8,53.7z M881.8,49.6
			c2.7-2.8,4-7.5,4-10.5c0-3.1-1.8-6.3-4-6.3c-2.1,0-3.8,3.2-3.8,6.3C878,42,879.2,46.8,881.8,49.6z M845.7,49.6
			c2.7-2.8,4-7.5,4-10.5c0-3.1-1.8-6.3-4-6.3c-2.1,0-3.8,3.2-3.8,6.3C841.9,42,843.1,46.8,845.7,49.6z M809.9,49.6
			c2.7-2.8,4-7.5,4-10.5c0-3.1-1.8-6.3-4-6.3c-2.1,0-3.8,3.2-3.8,6.3C806.1,42,807.3,46.8,809.9,49.6z M773.9,49.6
			c2.7-2.8,4-7.5,4-10.5c0-3.1-1.8-6.3-4-6.3c-2.1,0-3.8,3.2-3.8,6.3C770.1,42,771.3,46.8,773.9,49.6z M738,49.6
			c2.7-2.8,4-7.5,4-10.5c0-3.1-1.8-6.3-4-6.3c-2.1,0-3.8,3.2-3.8,6.3C734.2,42,735.3,46.8,738,49.6z M702.2,49.6
			c2.7-2.8,4-7.5,4-10.5c0-3.1-1.8-6.3-4-6.3c-2.1,0-3.8,3.2-3.8,6.3C698.3,42,699.5,46.8,702.2,49.6z"/>
		<path fill="#91D745" stroke="#91D745" stroke-width="4" stroke-miterlimit="10" d="M885.8,39.1c0,2.9-1.3,7.7-4,10.5
			c-2.6-2.8-3.8-7.5-3.8-10.5c0-3.1,1.8-6.3,3.8-6.3C884.1,32.8,885.8,36,885.8,39.1z"/>
		<path fill="#91D745" stroke="#91D745" stroke-width="4" stroke-miterlimit="10" d="M881.8,316.9c2.7,2.8,4,7.5,4,10.5
			c0,3.1-1.8,6.3-4,6.3c-2.1,0-3.8-3.2-3.8-6.3C878,324.5,879.2,319.7,881.8,316.9z"/>
		<path fill="#91D745" stroke="#91D745" stroke-width="4" stroke-miterlimit="10" d="M849.7,39.1c0,2.9-1.3,7.7-4,10.5
			c-2.7-2.8-3.8-7.5-3.8-10.5c0-3.1,1.8-6.3,3.8-6.3C847.9,32.8,849.7,36,849.7,39.1z"/>
		<path fill="#91D745" stroke="#91D745" stroke-width="4" stroke-miterlimit="10" d="M845.7,316.9c2.7,2.8,4,7.5,4,10.5
			c0,3.1-1.8,6.3-4,6.3c-2.1,0-3.8-3.2-3.8-6.3C841.9,324.5,843.1,319.7,845.7,316.9z"/>
		<path fill="#91D745" stroke="#91D745" stroke-width="4" stroke-miterlimit="10" d="M813.9,39.1c0,2.9-1.3,7.7-4,10.5
			c-2.7-2.8-3.8-7.5-3.8-10.5c0-3.1,1.8-6.3,3.8-6.3C812.1,32.8,813.9,36,813.9,39.1z"/>
		<path fill="#91D745" stroke="#91D745" stroke-width="4" stroke-miterlimit="10" d="M809.9,316.9c2.7,2.8,4,7.5,4,10.5
			c0,3.1-1.8,6.3-4,6.3c-2.1,0-3.8-3.2-3.8-6.3C806.1,324.5,807.3,319.7,809.9,316.9z"/>
		<path fill="#91D745" stroke="#91D745" stroke-width="4" stroke-miterlimit="10" d="M777.9,39.1c0,2.9-1.3,7.7-4,10.5
			c-2.7-2.8-3.8-7.5-3.8-10.5c0-3.1,1.8-6.3,3.8-6.3C776.2,32.8,777.9,36,777.9,39.1z"/>
		<path fill="#91D745" stroke="#91D745" stroke-width="4" stroke-miterlimit="10" d="M773.9,316.9c2.7,2.8,4,7.5,4,10.5
			c0,3.1-1.8,6.3-4,6.3c-2.1,0-3.8-3.2-3.8-6.3C770.1,324.5,771.3,319.7,773.9,316.9z"/>
		<path fill="#91D745" stroke="#91D745" stroke-width="4" stroke-miterlimit="10" d="M742,39.1c0,2.9-1.3,7.7-4,10.5
			c-2.7-2.8-3.8-7.5-3.8-10.5c0-3.1,1.8-6.3,3.8-6.3C740.2,32.8,742,36,742,39.1z"/>
		<path fill="#91D745" stroke="#91D745" stroke-width="4" stroke-miterlimit="10" d="M738,316.9c2.7,2.8,4,7.5,4,10.5
			c0,3.1-1.8,6.3-4,6.3c-2.1,0-3.8-3.2-3.8-6.3C734.2,324.5,735.3,319.7,738,316.9z"/>
		<path fill="#91D745" stroke="#91D745" stroke-width="4" stroke-miterlimit="10" d="M706.1,39.1c0,2.9-1.3,7.7-4,10.5
			c-2.7-2.8-3.8-7.5-3.8-10.5c0-3.1,1.8-6.3,3.8-6.3C704.4,32.8,706.1,36,706.1,39.1z"/>
		<path fill="#91D745" stroke="#91D745" stroke-width="4" stroke-miterlimit="10" d="M702.2,316.9c2.7,2.8,4,7.5,4,10.5
			c0,3.1-1.8,6.3-4,6.3c-2.1,0-3.8-3.2-3.8-6.3C698.3,324.5,699.5,319.7,702.2,316.9z"/>
		<path fill="#91D745" stroke="#91D745" stroke-width="4" stroke-miterlimit="10" d="M684.3,305.7v7.1h-3.5c-4,0-7.4,0.6-10.2,1.8
			c3.2,3.8,4.7,8.7,4.7,12.8c0,7.1-4,12.7-10.2,12.7c-6.3,0-10.3-5.6-10.3-12.7c0-4.1,1.5-9,4.7-12.8c-3.1-1.5-7.7-2.2-12.2-2.2
			c-4.9,0-9.6,0.9-12.8,2.4c5,5.6,7.4,16.1,7.4,23.1c0,10.2-5,19.2-13.1,19.2c-8.1,0-13.1-9-13.1-19.2c0-7.1,2.2-17.5,7.2-23.1
			c-3.2-1.5-8-2.4-12.8-2.4c-4.6,0-9.1,0.7-12.2,2.2c3.2,3.8,4.7,8.7,4.7,12.8c0,7.1-4,12.7-10.2,12.7c-6.3,0-10.3-5.6-10.3-12.7
			c0-4.1,1.5-9,4.7-12.8c-2.8-1.2-6.2-1.8-10.2-1.8H573v-7.1h3.5c5.8,0,11.4,1.3,15.8,4c5.2-2.8,11.5-4.3,18-4.3
			c6.6,0,13.3,1.9,18.4,4.9c5.2-2.9,11.8-4.9,18.4-4.9c6.5,0,12.8,1.5,18,4.3c4.3-2.5,9.9-4,15.6-4H684.3z M665.2,334
			c2.8,0,4.1-2.9,4.1-6.3c0-4-1.6-8.7-4.1-10.5c-2.5,1.8-4.1,6.5-4.1,10.5C661,331.1,662.4,334,665.2,334z M634.7,337.9
			c0-5.6-1.8-15.5-5.9-19.9c-4.3,4.4-6,14.3-6,19.9c0,6.6,2.4,12.2,6,12.2C632.3,350.1,634.7,344.5,634.7,337.9z M592.4,334
			c2.8,0,4.1-2.9,4.1-6.3c0-4-1.6-8.7-4.1-10.5c-2.5,1.8-4.1,6.5-4.1,10.5C588.2,331.1,589.6,334,592.4,334z"/>
		<path fill="#91D745" stroke="#91D745" stroke-width="4" stroke-miterlimit="10" d="M684.3,53.7v7.1h-3.5c-5.8,0-11.3-1.5-15.6-4
			c-5.2,2.8-11.5,4.3-18,4.3c-6.6,0-13.3-1.9-18.4-4.9c-5.2,2.9-11.8,4.9-18.4,4.9c-6.5,0-12.8-1.5-18-4.3c-4.4,2.7-10,4-15.8,4H573
			v-7.1h3.5c4,0,7.4-0.6,10.2-1.8c-3.2-3.8-4.7-8.7-4.7-12.8c0-7.1,4-12.7,10.3-12.7c6.2,0,10.2,5.6,10.2,12.7c0,4.1-1.5,9-4.7,12.8
			c3.1,1.5,7.7,2.2,12.2,2.2c4.9,0,9.6-0.9,12.8-2.4c-5-5.6-7.2-16.1-7.2-23.1c0-10.2,5-19.2,13.1-19.2c8.1,0,13.1,9,13.1,19.2
			c0,7.1-2.4,17.5-7.4,23.1c3.2,1.5,8,2.4,12.8,2.4c4.6,0,9.1-0.7,12.2-2.2c-3.2-3.8-4.7-8.7-4.7-12.8c0-7.1,4-12.7,10.3-12.7
			c6.2,0,10.2,5.6,10.2,12.7c0,4.1-1.5,9-4.7,12.8c2.8,1.2,6.2,1.8,10.2,1.8H684.3z M669.3,38.8c0-3.4-1.3-6.3-4.1-6.3
			c-2.8,0-4.1,2.9-4.1,6.3c0,4,1.6,8.7,4.1,10.5C667.7,47.5,669.3,42.8,669.3,38.8z M628.8,48.5c4.1-4.4,5.9-14.3,5.9-19.9
			c0-6.6-2.3-12.2-5.9-12.2c-3.7,0-6,5.6-6,12.2C622.7,34.2,624.5,44.1,628.8,48.5z M596.5,38.8c0-3.4-1.3-6.3-4.1-6.3
			s-4.1,2.9-4.1,6.3c0,4,1.6,8.7,4.1,10.5C594.9,47.5,596.5,42.8,596.5,38.8z"/>
		<path fill="#91D745" stroke="#91D745" stroke-width="4" stroke-miterlimit="10" d="M573,305.7v7.1c-5.6,0-9.4,0.6-12.2,1.8
			c3.1,3.8,4.7,8.7,4.7,12.8c0,7.1-4.1,12.7-10.5,12.7c-6.2,0-10.3-5.6-10.3-12.7c0-4.1,1.6-9,4.7-12.8c-3.4-1.5-7.7-2.2-12.1-2.2
			c-4.6,0-9.1,0.7-12.7,2.2c3.1,3.8,4.7,8.7,4.7,12.8c0,7.1-4.1,12.7-10.5,12.7c-6.2,0-10.3-5.6-10.3-12.7c0-4.1,1.6-9,4.7-12.8
			c-3.4-1.5-7.7-2.2-11.9-2.2c-4.4,0-9,0.7-12.5,2.2c3.1,3.8,4.7,8.7,4.7,12.8c0,7.1-4.1,12.7-10.5,12.7c-6.2,0-10.3-5.6-10.3-12.7
			c0-4.1,1.6-9,4.7-12.8c-3.4-1.5-7.7-2.2-12.1-2.2c-4.4,0-9,0.7-12.5,2.2c3.1,3.8,4.7,8.7,4.7,12.8c0,7.1-4.1,12.7-10.5,12.7
			c-6.2,0-10.3-5.6-10.3-12.7c0-4.1,1.6-9,4.7-12.8c-3.4-1.5-7.7-2.2-12.1-2.2c-4.4,0-9,0.7-12.5,2.2c3.1,3.8,4.7,8.7,4.7,12.8
			c0,7.1-4.1,12.7-10.5,12.7c-6.2,0-10.3-5.6-10.3-12.7c0-4.1,1.6-9,4.7-12.8c-3.4-1.5-7.7-2.2-11.9-2.2c-4.4,0-9,0.7-12.5,2.2
			c3.1,3.8,4.7,8.7,4.7,12.8c0,7.1-4.1,12.7-10.5,12.7c-6.2,0-10.3-5.6-10.3-12.7c0-4.1,1.6-9,4.7-12.8c-2.8-1.2-6.6-1.8-12.2-1.8
			v-7.1c8.4,0,13.7,1.5,17.8,4c4.9-2.9,11.2-4.3,17.7-4.3c6.5,0,13,1.3,18.1,4.3c4.9-2.9,11.3-4.3,17.8-4.3c6.5,0,13,1.3,18.1,4.3
			c4.9-2.9,11.4-4.3,17.8-4.3c6.5,0,13,1.3,18.1,4.3c4.9-2.9,11.2-4.3,17.7-4.3c6.5,0,13,1.3,18.1,4.3c4.9-2.9,11.5-4.3,18-4.3
			c6.5,0,13,1.3,18.1,4.3C559.3,307.2,564.6,305.7,573,305.7z M559,327.4c0-2.9-1.3-7.7-4-10.5c-2.7,2.8-3.8,7.5-3.8,10.5
			c0,3.1,1.8,6.3,3.8,6.3C557.3,333.7,559,330.5,559,327.4z M522.9,327.4c0-2.9-1.3-7.7-4-10.5c-2.7,2.8-3.8,7.5-3.8,10.5
			c0,3.1,1.8,6.3,3.8,6.3C521.2,333.7,522.9,330.5,522.9,327.4z M487.1,327.4c0-2.9-1.3-7.7-4-10.5c-2.6,2.8-3.8,7.5-3.8,10.5
			c0,3.1,1.8,6.3,3.8,6.3C485.3,333.7,487.1,330.5,487.1,327.4z M451.1,327.4c0-2.9-1.3-7.7-4-10.5c-2.6,2.8-3.8,7.5-3.8,10.5
			c0,3.1,1.8,6.3,3.8,6.3C449.4,333.7,451.1,330.5,451.1,327.4z M415.2,327.4c0-2.9-1.3-7.7-4-10.5c-2.7,2.8-3.8,7.5-3.8,10.5
			c0,3.1,1.8,6.3,3.8,6.3C413.4,333.7,415.2,330.5,415.2,327.4z M379.4,327.4c0-2.9-1.3-7.7-4-10.5c-2.7,2.8-3.8,7.5-3.8,10.5
			c0,3.1,1.8,6.3,3.8,6.3C377.6,333.7,379.4,330.5,379.4,327.4z"/>
		<path fill="#91D745" stroke="#91D745" stroke-width="4" stroke-miterlimit="10" d="M573,53.7v7.1c-8.4,0-13.7-1.5-18-4
			c-5.2,2.9-11.6,4.3-18.1,4.3c-6.5,0-13.1-1.3-18-4.3c-5.2,2.9-11.6,4.3-18.1,4.3c-6.5,0-12.8-1.3-17.7-4.3
			c-5.2,2.9-11.6,4.3-18.1,4.3c-6.5,0-13-1.3-17.8-4.3c-5.2,2.9-11.6,4.3-18.1,4.3c-6.5,0-13-1.3-17.8-4.3
			c-5.2,2.9-11.6,4.3-18.1,4.3c-6.5,0-12.8-1.3-17.7-4.3c-4.1,2.5-9.4,4-17.8,4v-7.1c5.6,0,9.4-0.6,12.2-1.8
			c-3.1-3.8-4.7-8.7-4.7-12.8c0-7.1,4.1-12.7,10.3-12.7c6.3,0,10.5,5.6,10.5,12.7c0,4.1-1.6,9-4.7,12.8c3.5,1.5,8.1,2.2,12.5,2.2
			c4.3,0,8.6-0.7,11.9-2.2c-3.1-3.8-4.7-8.7-4.7-12.8c0-7.1,4.1-12.7,10.3-12.7c6.3,0,10.5,5.6,10.5,12.7c0,4.1-1.6,9-4.7,12.8
			c3.5,1.5,8.1,2.2,12.5,2.2c4.4,0,8.7-0.7,12.1-2.2c-3.1-3.8-4.7-8.7-4.7-12.8c0-7.1,4.1-12.7,10.3-12.7c6.3,0,10.5,5.6,10.5,12.7
			c0,4.1-1.6,9-4.7,12.8c3.5,1.5,8.1,2.2,12.5,2.2c4.4,0,8.7-0.7,12.1-2.2c-3.1-3.8-4.7-8.7-4.7-12.8c0-7.1,4.1-12.7,10.3-12.7
			c6.3,0,10.5,5.6,10.5,12.7c0,4.1-1.6,9-4.7,12.8c3.5,1.5,8.1,2.2,12.5,2.2c4.3,0,8.6-0.7,11.9-2.2c-3.1-3.8-4.7-8.7-4.7-12.8
			c0-7.1,4.1-12.7,10.3-12.7c6.3,0,10.5,5.6,10.5,12.7c0,4.1-1.6,9-4.7,12.8c3.5,1.5,8.1,2.2,12.7,2.2c4.4,0,8.7-0.7,12.1-2.2
			c-3.1-3.8-4.7-8.7-4.7-12.8c0-7.1,4.1-12.7,10.3-12.7c6.3,0,10.5,5.6,10.5,12.7c0,4.1-1.6,9-4.7,12.8
			C563.6,53.1,567.4,53.7,573,53.7z M555.1,49.6c2.7-2.8,4-7.5,4-10.5c0-3.1-1.8-6.3-4-6.3c-2.1,0-3.8,3.2-3.8,6.3
			C551.2,42,552.4,46.8,555.1,49.6z M518.9,49.6c2.6-2.8,4-7.5,4-10.5c0-3.1-1.8-6.3-4-6.3c-2.1,0-3.8,3.2-3.8,6.3
			C515.1,42,516.3,46.8,518.9,49.6z M483.1,49.6c2.7-2.8,4-7.5,4-10.5c0-3.1-1.8-6.3-4-6.3c-2.1,0-3.8,3.2-3.8,6.3
			C479.3,42,480.5,46.8,483.1,49.6z M447.2,49.6c2.6-2.8,4-7.5,4-10.5c0-3.1-1.8-6.3-4-6.3c-2.1,0-3.8,3.2-3.8,6.3
			C443.3,42,444.5,46.8,447.2,49.6z M411.2,49.6c2.6-2.8,4-7.5,4-10.5c0-3.1-1.8-6.3-4-6.3c-2.1,0-3.8,3.2-3.8,6.3
			C407.4,42,408.5,46.8,411.2,49.6z M375.4,49.6c2.6-2.8,4-7.5,4-10.5c0-3.1-1.8-6.3-4-6.3c-2.1,0-3.8,3.2-3.8,6.3
			C371.6,42,372.7,46.8,375.4,49.6z"/>
		<path fill="#91D745" stroke="#91D745" stroke-width="4" stroke-miterlimit="10" d="M559,39.1c0,2.9-1.3,7.7-4,10.5
			c-2.7-2.8-3.8-7.5-3.8-10.5c0-3.1,1.8-6.3,3.8-6.3C557.3,32.8,559,36,559,39.1z"/>
		<path fill="#91D745" stroke="#91D745" stroke-width="4" stroke-miterlimit="10" d="M555.1,316.9c2.7,2.8,4,7.5,4,10.5
			c0,3.1-1.8,6.3-4,6.3c-2.1,0-3.8-3.2-3.8-6.3C551.2,324.5,552.4,319.7,555.1,316.9z"/>
		<path fill="#91D745" stroke="#91D745" stroke-width="4" stroke-miterlimit="10" d="M522.9,39.1c0,2.9-1.3,7.7-4,10.5
			c-2.7-2.8-3.8-7.5-3.8-10.5c0-3.1,1.8-6.3,3.8-6.3C521.2,32.8,522.9,36,522.9,39.1z"/>
		<path fill="#91D745" stroke="#91D745" stroke-width="4" stroke-miterlimit="10" d="M518.9,316.9c2.6,2.8,4,7.5,4,10.5
			c0,3.1-1.8,6.3-4,6.3c-2.1,0-3.8-3.2-3.8-6.3C515.1,324.5,516.3,319.7,518.9,316.9z"/>
		<path fill="#91D745" stroke="#91D745" stroke-width="4" stroke-miterlimit="10" d="M487.1,39.1c0,2.9-1.3,7.7-4,10.5
			c-2.6-2.8-3.8-7.5-3.8-10.5c0-3.1,1.8-6.3,3.8-6.3C485.3,32.8,487.1,36,487.1,39.1z"/>
		<path fill="#91D745" stroke="#91D745" stroke-width="4" stroke-miterlimit="10" d="M483.1,316.9c2.7,2.8,4,7.5,4,10.5
			c0,3.1-1.8,6.3-4,6.3c-2.1,0-3.8-3.2-3.8-6.3C479.3,324.5,480.5,319.7,483.1,316.9z"/>
		<path fill="#91D745" stroke="#91D745" stroke-width="4" stroke-miterlimit="10" d="M451.1,39.1c0,2.9-1.3,7.7-4,10.5
			c-2.6-2.8-3.8-7.5-3.8-10.5c0-3.1,1.8-6.3,3.8-6.3C449.4,32.8,451.1,36,451.1,39.1z"/>
		<path fill="#91D745" stroke="#91D745" stroke-width="4" stroke-miterlimit="10" d="M447.2,316.9c2.6,2.8,4,7.5,4,10.5
			c0,3.1-1.8,6.3-4,6.3c-2.1,0-3.8-3.2-3.8-6.3C443.3,324.5,444.5,319.7,447.2,316.9z"/>
		<path fill="#91D745" stroke="#91D745" stroke-width="4" stroke-miterlimit="10" d="M415.2,39.1c0,2.9-1.3,7.7-4,10.5
			c-2.7-2.8-3.8-7.5-3.8-10.5c0-3.1,1.8-6.3,3.8-6.3C413.4,32.8,415.2,36,415.2,39.1z"/>
		<path fill="#91D745" stroke="#91D745" stroke-width="4" stroke-miterlimit="10" d="M411.2,316.9c2.6,2.8,4,7.5,4,10.5
			c0,3.1-1.8,6.3-4,6.3c-2.1,0-3.8-3.2-3.8-6.3C407.4,324.5,408.5,319.7,411.2,316.9z"/>
		<path fill="#91D745" stroke="#91D745" stroke-width="4" stroke-miterlimit="10" d="M379.4,39.1c0,2.9-1.3,7.7-4,10.5
			c-2.7-2.8-3.8-7.5-3.8-10.5c0-3.1,1.8-6.3,3.8-6.3C377.6,32.8,379.4,36,379.4,39.1z"/>
		<path fill="#91D745" stroke="#91D745" stroke-width="4" stroke-miterlimit="10" d="M375.4,316.9c2.6,2.8,4,7.5,4,10.5
			c0,3.1-1.8,6.3-4,6.3c-2.1,0-3.8-3.2-3.8-6.3C371.6,324.5,372.7,319.7,375.4,316.9z"/>
		<rect x="270.9" y="305.7" fill="#91D745" stroke="#91D745" stroke-width="4" stroke-miterlimit="10" width="86.7" height="7.1"/>
		<rect x="270.9" y="53.7" fill="#91D745" stroke="#91D745" stroke-width="4" stroke-miterlimit="10" width="86.7" height="7.1"/>
		<path fill="#91D745" stroke="#91D745" stroke-width="4" stroke-miterlimit="10" d="M270.9,305.7v7.1h-74.7
			c-4.3,0-7.5,0.7-10.3,1.9c3.1,4,4.6,8.7,4.6,12.7c0,6.9-4.1,13-10.3,13c-6.3,0-10.3-5.9-10.3-13c0-4,1.5-8.7,4.7-12.7
			c-2.6-1-6.2-1.9-10.2-1.9H89.7v-7.1h74.6c6.8,0,11.8,1.6,15.8,4.1c4-2.4,9.3-4.1,16.1-4.1H270.9z M184.1,327.4
			c0-2.9-1.3-7.5-3.7-10.2c-2.6,2.8-4.1,7.4-4.1,10.3c0,3.2,1.8,6.6,3.8,6.6S184.1,330.8,184.1,327.4z"/>
		<path fill="#91D745" stroke="#91D745" stroke-width="4" stroke-miterlimit="10" d="M270.9,53.7v7.1h-74.7
			c-6.8,0-12.1-1.8-16.1-4.1c-4,2.5-9,4.1-15.8,4.1H89.7v-7.1h74.6c4,0,7.5-0.9,10.2-1.9c-3.2-4-4.7-8.7-4.7-12.7
			c0-7.1,4-13,10.3-13c6.2,0,10.3,6,10.3,13c0,4-1.5,8.7-4.6,12.7c2.8,1.2,6,1.9,10.3,1.9H270.9z M180.4,49.3
			c2.4-2.7,3.7-7.2,3.7-10.2c0-3.4-1.9-6.8-4-6.8s-3.8,3.4-3.8,6.6C176.2,41.9,177.7,46.5,180.4,49.3z"/>
		<path fill="#91D745" stroke="#91D745" stroke-width="4" stroke-miterlimit="10" d="M107.6,146.4c15.9,4.4,24.5,21.5,24.5,37.6
			c0,16.4-8.5,33.2-24.5,37.4c-5,13.6-20.2,23.3-34.2,24.5v44.7c0,10.5,5.2,15.2,16.4,15.2v7.1c-16.1,0-23.3-7.1-23.3-22.3v-44.7
			c-14.7-1.3-29.5-10.3-33.9-24.5C16.5,217,8.1,200.2,8.1,184c0-16.1,8.4-33.2,24.5-37.6c4.6-13.7,19.5-23.1,33.9-24.3V75.9
			c0-15.3,7.2-22.3,23.3-22.3v7.1c-11.2,0-16.4,4.6-16.4,15.2v46.1C88,123.3,102.8,132.2,107.6,146.4z M125.1,184
			c0-11.8-5.9-24.8-16.4-29.6c0,12.4-6.6,28.3-21.5,28.3c-10.5,0-15.6-6.9-15.6-14.9c0-10.2,9.1-22.4,27.4-22.4h0.6
			c-4.9-10.6-17.7-16.5-29.6-16.5c-11.9,0-24.8,5.9-29.8,16.5h0.9c18.3,0,27.4,12.2,27.4,22.4c0,8-5.2,14.9-15.8,14.9
			c-14.9,0-21.4-15.9-21.4-27.6c0-0.3-0.1-0.3-0.1-0.3s0.1-0.1,0.1-0.4C21.2,159.5,15,172.3,15,184c0,11.8,6.2,24.6,16.4,29.8
			c0-12.7,6.5-28.6,21.4-28.6c10.2,0,15.8,7.4,15.8,15.8c0,10-8.4,21.5-27.4,21.5c-0.4,0-0.4,0.1-0.4,0.1c-0.1,0-0.1-0.1-0.4-0.1
			c5,10.6,18,16.5,29.8,16.5c12.1,0,24.8-5.9,29.6-16.5H99c-19.2,0-27.4-11.5-27.4-21.5c0-8.4,5.5-15.8,15.6-15.8
			c14.9,0,21.5,15.9,21.5,28.4C119.2,208.7,125.1,195.9,125.1,184z M101.7,215.4v-2.7c0-8.8-4.3-20.6-14.4-20.6
			c-5.6,0-8.7,4.1-8.7,8.9c0,6.6,6,14.6,20.5,14.6C99.9,215.5,100.6,215.5,101.7,215.4z M101.7,155.1v-2.7c-0.7-0.1-2.1-0.1-2.7-0.1
			c-13.6,0-20.5,8.5-20.5,15.5c0,4.4,2.9,8,8.7,8C97.4,175.7,101.7,163.9,101.7,155.1z M52.7,175.7c5.9,0,8.8-3.5,8.8-8
			c0-6.9-6.9-15.5-20.5-15.5c-0.7,0-2.1,0-2.8,0.1v2.7C38.3,163.9,42.7,175.7,52.7,175.7z M61.6,200.9c0-4.7-3.1-8.9-8.8-8.9
			c-10,0-14.4,11.8-14.4,20.6v2.8h2.8C55.4,215.5,61.6,207.6,61.6,200.9z"/>
		<path fill="#91D745" stroke="#91D745" stroke-width="4" stroke-miterlimit="10" d="M101.7,212.7v2.7c-1,0.1-1.8,0.1-2.7,0.1
			c-14.4,0-20.5-8-20.5-14.6c0-4.7,3.1-8.9,8.7-8.9C97.4,192.1,101.7,203.9,101.7,212.7z"/>
		<path fill="#91D745" stroke="#91D745" stroke-width="4" stroke-miterlimit="10" d="M101.7,152.4v2.7c0,8.8-4.3,20.6-14.4,20.6
			c-5.8,0-8.7-3.5-8.7-8c0-6.9,6.9-15.5,20.5-15.5C99.6,152.3,100.9,152.3,101.7,152.4z"/>
		<path fill="#91D745" stroke="#91D745" stroke-width="4" stroke-miterlimit="10" d="M61.6,167.8c0,4.4-2.9,8-8.8,8
			c-10,0-14.4-11.8-14.4-20.6v-2.7c0.7-0.1,2.1-0.1,2.8-0.1C54.6,152.3,61.6,160.8,61.6,167.8z"/>
		<path fill="#91D745" stroke="#91D745" stroke-width="4" stroke-miterlimit="10" d="M52.7,192.1c5.8,0,8.8,4.1,8.8,8.9
			c0,6.6-6.2,14.6-20.5,14.6h-2.8v-2.8C38.3,203.9,42.7,192.1,52.7,192.1z"/>
	</g>
	<g>
		<g>
			<path fill="#FFF58C" stroke="#FFF58C" stroke-width="4" stroke-miterlimit="10" d="M1225.8,145.4c16.1,4.4,24.5,21.5,24.5,37.6
				c0,16.2-8.4,33-24.5,37.4c-4.4,14.2-19.2,23.1-33.9,24.5v44.7c0,15.2-7.2,22.3-23.3,22.3v-7.1c11.2,0,16.4-4.7,16.4-15.2v-44.7
				c-14-1.2-29.2-10.9-34.2-24.5c-15.9-4.3-24.5-21.1-24.5-37.4c0-16.1,8.5-33.2,24.5-37.6c4.7-14.1,19.6-23.1,34.2-24.3V74.9
				c0-10.6-5.2-15.2-16.4-15.2v-7.1c16.1,0,23.3,6.9,23.3,22.3v46.1C1206.4,122.3,1221.3,131.7,1225.8,145.4z M1243.4,183
				c0-11.6-6.2-24.5-16.4-29.6c0,0.3,0.2,0.4,0.2,0.4s-0.2,0-0.2,0.3c0,11.6-6.5,27.6-21.4,27.6c-10.6,0-15.8-6.9-15.8-14.9
				c0-10.2,9.1-22.4,27.4-22.4h0.9c-5-10.6-17.8-16.5-29.8-16.5c-11.9,0-24.8,5.9-29.6,16.5h0.6c18.3,0,27.4,12.2,27.4,22.4
				c0,8-5.2,14.9-15.6,14.9c-14.9,0-21.5-15.9-21.5-28.3c-10.5,4.9-16.4,17.8-16.4,29.6c0,11.9,5.9,24.8,16.4,29.6
				c0-12.5,6.6-28.4,21.5-28.4c10.2,0,15.6,7.4,15.6,15.8c0,10-8.2,21.5-27.4,21.5h-0.6c4.9,10.6,17.5,16.5,29.6,16.5
				c11.8,0,24.8-5.9,29.8-16.5c-0.3,0-0.3,0.1-0.4,0.1c0,0,0-0.1-0.4-0.1c-19,0-27.4-11.5-27.4-21.5c0-8.4,5.6-15.8,15.8-15.8
				c14.9,0,21.4,15.9,21.4,28.6C1237.2,207.6,1243.4,194.8,1243.4,183z M1220.1,214.5v-2.8c0-8.8-4.4-20.6-14.4-20.6
				c-5.8,0-8.8,4.1-8.8,8.9c0,6.6,6.2,14.6,20.5,14.6H1220.1z M1220.1,154.1v-2.7c-0.7-0.1-2.1-0.1-2.8-0.1
				c-13.6,0-20.5,8.5-20.5,15.5c0,4.4,2.9,8,8.8,8C1215.7,174.7,1220.1,162.9,1220.1,154.1z M1171.2,174.7c5.8,0,8.7-3.5,8.7-8
				c0-6.9-6.9-15.5-20.5-15.5c-0.6,0-1.9,0-2.7,0.1v2.7C1156.7,162.9,1161,174.7,1171.2,174.7z M1179.9,199.9c0-4.7-3.1-8.9-8.7-8.9
				c-10.2,0-14.4,11.8-14.4,20.6v2.7c1,0.1,1.8,0.1,2.7,0.1C1173.8,214.5,1179.9,206.6,1179.9,199.9z"/>
			<path fill="#FFF58C" stroke="#FFF58C" stroke-width="4" stroke-miterlimit="10" d="M1220.1,211.7v2.8h-2.8
				c-14.3,0-20.5-8-20.5-14.6c0-4.7,3.1-8.9,8.8-8.9C1215.7,191.1,1220.1,202.9,1220.1,211.7z"/>
			<path fill="#FFF58C" stroke="#FFF58C" stroke-width="4" stroke-miterlimit="10" d="M1220.1,151.4v2.7c0,8.8-4.4,20.6-14.4,20.6
				c-5.9,0-8.8-3.5-8.8-8c0-6.9,6.9-15.5,20.5-15.5C1218,151.3,1219.4,151.3,1220.1,151.4z"/>
			<path fill="#FFF58C" stroke="#FFF58C" stroke-width="4" stroke-miterlimit="10" d="M1179.9,166.8c0,4.4-2.9,8-8.7,8
				c-10.2,0-14.4-11.8-14.4-20.6v-2.7c0.7-0.1,2.1-0.1,2.7-0.1C1172.9,151.3,1179.9,159.8,1179.9,166.8z"/>
			<path fill="#FFF58C" stroke="#FFF58C" stroke-width="4" stroke-miterlimit="10" d="M1171.2,191.1c5.6,0,8.7,4.1,8.7,8.9
				c0,6.6-6,14.6-20.5,14.6c-0.9,0-1.6,0-2.7-0.1v-2.7C1156.7,202.9,1161,191.1,1171.2,191.1z"/>
			<path fill="#FFF58C" stroke="#FFF58C" stroke-width="4" stroke-miterlimit="10" d="M1168.7,304.7v7.1h-74.7
				c-4.3,0-7.5,0.7-10.3,1.9c3.1,4,4.6,8.7,4.6,12.7c0,6.9-4.1,13-10.3,13c-6.3,0-10.3-5.9-10.3-13c0-4,1.5-8.7,4.7-12.7
				c-2.6-1-6.2-1.9-10.2-1.9h-74.6v-7.1h74.6c6.8,0,11.8,1.6,15.8,4.1c4-2.4,9.3-4.1,16.1-4.1H1168.7z M1081.8,326.4
				c0-2.9-1.3-7.5-3.7-10.2c-2.7,2.8-4.1,7.4-4.1,10.3c0,3.2,1.8,6.6,3.8,6.6C1079.9,333.2,1081.8,329.8,1081.8,326.4z"/>
			<path fill="#FFF58C" stroke="#FFF58C" stroke-width="4" stroke-miterlimit="10" d="M1168.7,52.7v7.1h-74.7
				c-6.8,0-12.1-1.8-16.1-4.1c-4,2.5-9,4.1-15.8,4.1h-74.6v-7.1h74.6c4,0,7.5-0.9,10.2-1.9c-3.2-4-4.7-8.7-4.7-12.7
				c0-7.1,4-13,10.3-13c6.2,0,10.3,6,10.3,13c0,4-1.5,8.7-4.6,12.7c2.8,1.2,6,1.9,10.3,1.9H1168.7z M1078.2,48.3
				c2.4-2.7,3.7-7.2,3.7-10.2c0-3.4-1.9-6.8-4-6.8c-2.1,0-3.8,3.4-3.8,6.6C1074,40.9,1075.5,45.5,1078.2,48.3z"/>
			<rect x="900.8" y="304.7" fill="#FFF58C" stroke="#FFF58C" stroke-width="4" stroke-miterlimit="10" width="86.7" height="7.1"/>
			<rect x="900.8" y="52.7" fill="#FFF58C" stroke="#FFF58C" stroke-width="4" stroke-miterlimit="10" width="86.7" height="7.1"/>
			<path fill="#FFF58C" stroke="#FFF58C" stroke-width="4" stroke-miterlimit="10" d="M900.8,304.7v7.1c-5.6,0-9.4,0.6-12.2,1.8
				c3.1,3.8,4.7,8.7,4.7,12.8c0,7.1-4.1,12.7-10.5,12.7c-6.2,0-10.3-5.6-10.3-12.7c0-4.1,1.6-9,4.7-12.8c-3.4-1.5-7.7-2.2-12.1-2.2
				c-4.6,0-9.1,0.7-12.7,2.2c3.1,3.8,4.7,8.7,4.7,12.8c0,7.1-4.1,12.7-10.5,12.7c-6.2,0-10.3-5.6-10.3-12.7c0-4.1,1.6-9,4.7-12.8
				c-3.4-1.5-7.7-2.2-11.9-2.2c-4.4,0-9,0.7-12.5,2.2c3.1,3.8,4.7,8.7,4.7,12.8c0,7.1-4.1,12.7-10.5,12.7c-6.2,0-10.3-5.6-10.3-12.7
				c0-4.1,1.6-9,4.7-12.8c-3.4-1.5-7.7-2.2-12.1-2.2s-9,0.7-12.5,2.2c3.1,3.8,4.7,8.7,4.7,12.8c0,7.1-4.1,12.7-10.5,12.7
				c-6.2,0-10.3-5.6-10.3-12.7c0-4.1,1.6-9,4.7-12.8c-3.4-1.5-7.7-2.2-12.1-2.2c-4.4,0-9,0.7-12.5,2.2c3.1,3.8,4.7,8.7,4.7,12.8
				c0,7.1-4.1,12.7-10.5,12.7c-6.2,0-10.3-5.6-10.3-12.7c0-4.1,1.6-9,4.7-12.8c-3.4-1.5-7.7-2.2-11.9-2.2c-4.4,0-9,0.7-12.5,2.2
				c3.1,3.8,4.7,8.7,4.7,12.8c0,7.1-4.1,12.7-10.5,12.7c-6.2,0-10.3-5.6-10.3-12.7c0-4.1,1.6-9,4.7-12.8c-2.8-1.2-6.6-1.8-12.2-1.8
				v-7.1c8.4,0,13.7,1.5,17.8,4c4.9-2.9,11.2-4.3,17.7-4.3s13,1.3,18.1,4.3c4.9-2.9,11.3-4.3,17.8-4.3c6.5,0,13,1.3,18.1,4.3
				c4.9-2.9,11.3-4.3,17.8-4.3c6.5,0,13,1.3,18.1,4.3c4.9-2.9,11.2-4.3,17.7-4.3c6.5,0,13,1.3,18.1,4.3c4.9-2.9,11.5-4.3,18-4.3
				c6.5,0,13,1.3,18.1,4.3C887.1,306.2,892.4,304.7,900.8,304.7z M886.8,326.4c0-2.9-1.3-7.7-4-10.5c-2.6,2.8-3.8,7.5-3.8,10.5
				c0,3.1,1.8,6.3,3.8,6.3C885.1,332.7,886.8,329.5,886.8,326.4z M850.7,326.4c0-2.9-1.3-7.7-4-10.5c-2.7,2.8-3.8,7.5-3.8,10.5
				c0,3.1,1.8,6.3,3.8,6.3C848.9,332.7,850.7,329.5,850.7,326.4z M814.9,326.4c0-2.9-1.3-7.7-4-10.5c-2.7,2.8-3.8,7.5-3.8,10.5
				c0,3.1,1.8,6.3,3.8,6.3C813.1,332.7,814.9,329.5,814.9,326.4z M778.9,326.4c0-2.9-1.3-7.7-4-10.5c-2.7,2.8-3.8,7.5-3.8,10.5
				c0,3.1,1.8,6.3,3.8,6.3C777.2,332.7,778.9,329.5,778.9,326.4z M743,326.4c0-2.9-1.3-7.7-4-10.5c-2.7,2.8-3.8,7.5-3.8,10.5
				c0,3.1,1.8,6.3,3.8,6.3C741.2,332.7,743,329.5,743,326.4z M707.1,326.4c0-2.9-1.3-7.7-4-10.5c-2.7,2.8-3.8,7.5-3.8,10.5
				c0,3.1,1.8,6.3,3.8,6.3C705.4,332.7,707.1,329.5,707.1,326.4z"/>
			<path fill="#FFF58C" stroke="#FFF58C" stroke-width="4" stroke-miterlimit="10" d="M900.8,52.7v7.1c-8.4,0-13.7-1.5-18-4
				c-5.2,2.9-11.6,4.3-18.1,4.3c-6.5,0-13.1-1.3-18-4.3c-5.2,2.9-11.7,4.3-18.1,4.3c-6.5,0-12.8-1.3-17.7-4.3
				c-5.2,2.9-11.7,4.3-18.1,4.3c-6.5,0-13-1.3-17.8-4.3c-5.2,2.9-11.6,4.3-18.1,4.3c-6.5,0-13-1.3-17.8-4.3
				c-5.2,2.9-11.6,4.3-18.1,4.3s-12.8-1.3-17.7-4.3c-4.1,2.5-9.4,4-17.8,4v-7.1c5.6,0,9.4-0.6,12.2-1.8c-3.1-3.8-4.7-8.7-4.7-12.8
				c0-7.1,4.1-12.7,10.3-12.7c6.3,0,10.5,5.6,10.5,12.7c0,4.1-1.6,9-4.7,12.8c3.5,1.5,8.1,2.2,12.5,2.2c4.3,0,8.5-0.7,11.9-2.2
				c-3.1-3.8-4.7-8.7-4.7-12.8c0-7.1,4.1-12.7,10.3-12.7c6.3,0,10.5,5.6,10.5,12.7c0,4.1-1.6,9-4.7,12.8c3.5,1.5,8.1,2.2,12.5,2.2
				c4.4,0,8.7-0.7,12.1-2.2c-3.1-3.8-4.7-8.7-4.7-12.8c0-7.1,4.1-12.7,10.3-12.7c6.3,0,10.5,5.6,10.5,12.7c0,4.1-1.6,9-4.7,12.8
				c3.5,1.5,8.1,2.2,12.5,2.2s8.7-0.7,12.1-2.2c-3.1-3.8-4.7-8.7-4.7-12.8c0-7.1,4.1-12.7,10.3-12.7c6.3,0,10.5,5.6,10.5,12.7
				c0,4.1-1.6,9-4.7,12.8c3.5,1.5,8.1,2.2,12.5,2.2c4.3,0,8.5-0.7,11.9-2.2c-3.1-3.8-4.7-8.7-4.7-12.8c0-7.1,4.1-12.7,10.3-12.7
				c6.3,0,10.5,5.6,10.5,12.7c0,4.1-1.6,9-4.7,12.8c3.5,1.5,8.1,2.2,12.7,2.2c4.4,0,8.7-0.7,12.1-2.2c-3.1-3.8-4.7-8.7-4.7-12.8
				c0-7.1,4.1-12.7,10.3-12.7c6.3,0,10.5,5.6,10.5,12.7c0,4.1-1.6,9-4.7,12.8C891.4,52.1,895.2,52.7,900.8,52.7z M882.8,48.6
				c2.7-2.8,4-7.5,4-10.5c0-3.1-1.8-6.3-4-6.3c-2.1,0-3.8,3.2-3.8,6.3C879,41,880.2,45.8,882.8,48.6z M846.7,48.6
				c2.7-2.8,4-7.5,4-10.5c0-3.1-1.8-6.3-4-6.3c-2.1,0-3.8,3.2-3.8,6.3C842.9,41,844.1,45.8,846.7,48.6z M810.9,48.6
				c2.7-2.8,4-7.5,4-10.5c0-3.1-1.8-6.3-4-6.3c-2.1,0-3.8,3.2-3.8,6.3C807.1,41,808.3,45.8,810.9,48.6z M774.9,48.6
				c2.7-2.8,4-7.5,4-10.5c0-3.1-1.8-6.3-4-6.3c-2.1,0-3.8,3.2-3.8,6.3C771.1,41,772.3,45.8,774.9,48.6z M739,48.6
				c2.7-2.8,4-7.5,4-10.5c0-3.1-1.8-6.3-4-6.3c-2.1,0-3.8,3.2-3.8,6.3C735.2,41,736.3,45.8,739,48.6z M703.2,48.6
				c2.7-2.8,4-7.5,4-10.5c0-3.1-1.8-6.3-4-6.3c-2.1,0-3.8,3.2-3.8,6.3C699.3,41,700.5,45.8,703.2,48.6z"/>
			<path fill="#FFF58C" stroke="#FFF58C" stroke-width="4" stroke-miterlimit="10" d="M886.8,38.1c0,2.9-1.3,7.7-4,10.5
				c-2.6-2.8-3.8-7.5-3.8-10.5c0-3.1,1.8-6.3,3.8-6.3C885.1,31.8,886.8,35,886.8,38.1z"/>
			<path fill="#FFF58C" stroke="#FFF58C" stroke-width="4" stroke-miterlimit="10" d="M882.8,315.9c2.7,2.8,4,7.5,4,10.5
				c0,3.1-1.8,6.3-4,6.3c-2.1,0-3.8-3.2-3.8-6.3C879,323.5,880.2,318.7,882.8,315.9z"/>
			<path fill="#FFF58C" stroke="#FFF58C" stroke-width="4" stroke-miterlimit="10" d="M850.7,38.1c0,2.9-1.3,7.7-4,10.5
				c-2.7-2.8-3.8-7.5-3.8-10.5c0-3.1,1.8-6.3,3.8-6.3C848.9,31.8,850.7,35,850.7,38.1z"/>
			<path fill="#FFF58C" stroke="#FFF58C" stroke-width="4" stroke-miterlimit="10" d="M846.7,315.9c2.7,2.8,4,7.5,4,10.5
				c0,3.1-1.8,6.3-4,6.3c-2.1,0-3.8-3.2-3.8-6.3C842.9,323.5,844.1,318.7,846.7,315.9z"/>
			<path fill="#FFF58C" stroke="#FFF58C" stroke-width="4" stroke-miterlimit="10" d="M814.9,38.1c0,2.9-1.3,7.7-4,10.5
				c-2.7-2.8-3.8-7.5-3.8-10.5c0-3.1,1.8-6.3,3.8-6.3C813.1,31.8,814.9,35,814.9,38.1z"/>
			<path fill="#FFF58C" stroke="#FFF58C" stroke-width="4" stroke-miterlimit="10" d="M810.9,315.9c2.7,2.8,4,7.5,4,10.5
				c0,3.1-1.8,6.3-4,6.3c-2.1,0-3.8-3.2-3.8-6.3C807.1,323.5,808.3,318.7,810.9,315.9z"/>
			<path fill="#FFF58C" stroke="#FFF58C" stroke-width="4" stroke-miterlimit="10" d="M778.9,38.1c0,2.9-1.3,7.7-4,10.5
				c-2.7-2.8-3.8-7.5-3.8-10.5c0-3.1,1.8-6.3,3.8-6.3C777.2,31.8,778.9,35,778.9,38.1z"/>
			<path fill="#FFF58C" stroke="#FFF58C" stroke-width="4" stroke-miterlimit="10" d="M774.9,315.9c2.7,2.8,4,7.5,4,10.5
				c0,3.1-1.8,6.3-4,6.3c-2.1,0-3.8-3.2-3.8-6.3C771.1,323.5,772.3,318.7,774.9,315.9z"/>
			<path fill="#FFF58C" stroke="#FFF58C" stroke-width="4" stroke-miterlimit="10" d="M743,38.1c0,2.9-1.3,7.7-4,10.5
				c-2.7-2.8-3.8-7.5-3.8-10.5c0-3.1,1.8-6.3,3.8-6.3C741.2,31.8,743,35,743,38.1z"/>
			<path fill="#FFF58C" stroke="#FFF58C" stroke-width="4" stroke-miterlimit="10" d="M739,315.9c2.7,2.8,4,7.5,4,10.5
				c0,3.1-1.8,6.3-4,6.3c-2.1,0-3.8-3.2-3.8-6.3C735.2,323.5,736.3,318.7,739,315.9z"/>
			<path fill="#FFF58C" stroke="#FFF58C" stroke-width="4" stroke-miterlimit="10" d="M707.1,38.1c0,2.9-1.3,7.7-4,10.5
				c-2.7-2.8-3.8-7.5-3.8-10.5c0-3.1,1.8-6.3,3.8-6.3C705.4,31.8,707.1,35,707.1,38.1z"/>
			<path fill="#FFF58C" stroke="#FFF58C" stroke-width="4" stroke-miterlimit="10" d="M703.2,315.9c2.7,2.8,4,7.5,4,10.5
				c0,3.1-1.8,6.3-4,6.3c-2.1,0-3.8-3.2-3.8-6.3C699.3,323.5,700.5,318.7,703.2,315.9z"/>
			<path fill="#FFF58C" stroke="#FFF58C" stroke-width="4" stroke-miterlimit="10" d="M685.3,304.7v7.1h-3.5c-4,0-7.4,0.6-10.2,1.8
				c3.2,3.8,4.7,8.7,4.7,12.8c0,7.1-4,12.7-10.2,12.7c-6.3,0-10.3-5.6-10.3-12.7c0-4.1,1.5-9,4.7-12.8c-3.1-1.5-7.7-2.2-12.2-2.2
				c-4.9,0-9.6,0.9-12.8,2.4c5,5.6,7.4,16.1,7.4,23.1c0,10.2-5,19.2-13.1,19.2c-8.1,0-13.1-9-13.1-19.2c0-7.1,2.2-17.5,7.2-23.1
				c-3.2-1.5-8-2.4-12.8-2.4c-4.6,0-9.1,0.7-12.2,2.2c3.2,3.8,4.7,8.7,4.7,12.8c0,7.1-4,12.7-10.2,12.7c-6.3,0-10.3-5.6-10.3-12.7
				c0-4.1,1.5-9,4.7-12.8c-2.8-1.2-6.2-1.8-10.2-1.8H574v-7.1h3.5c5.8,0,11.4,1.3,15.8,4c5.2-2.8,11.5-4.3,18-4.3
				c6.6,0,13.3,1.9,18.4,4.9c5.2-2.9,11.8-4.9,18.4-4.9c6.5,0,12.8,1.5,18,4.3c4.3-2.5,9.9-4,15.6-4H685.3z M666.2,333
				c2.8,0,4.1-2.9,4.1-6.3c0-4-1.6-8.7-4.1-10.5c-2.5,1.8-4.1,6.5-4.1,10.5C662,330.1,663.4,333,666.2,333z M635.7,336.9
				c0-5.6-1.8-15.5-5.9-19.9c-4.3,4.4-6,14.3-6,19.9c0,6.6,2.4,12.2,6,12.2C633.3,349.1,635.7,343.5,635.7,336.9z M593.4,333
				c2.8,0,4.1-2.9,4.1-6.3c0-4-1.6-8.7-4.1-10.5c-2.5,1.8-4.1,6.5-4.1,10.5C589.2,330.1,590.6,333,593.4,333z"/>
			<path fill="#FFF58C" stroke="#FFF58C" stroke-width="4" stroke-miterlimit="10" d="M685.3,52.7v7.1h-3.5c-5.8,0-11.3-1.5-15.6-4
				c-5.2,2.8-11.5,4.3-18,4.3c-6.6,0-13.3-1.9-18.4-4.9c-5.2,2.9-11.8,4.9-18.4,4.9c-6.5,0-12.8-1.5-18-4.3c-4.4,2.7-10,4-15.8,4
				H574v-7.1h3.5c4,0,7.4-0.6,10.2-1.8c-3.2-3.8-4.7-8.7-4.7-12.8c0-7.1,4-12.7,10.3-12.7c6.2,0,10.2,5.6,10.2,12.7
				c0,4.1-1.5,9-4.7,12.8c3.1,1.5,7.7,2.2,12.2,2.2c4.9,0,9.6-0.9,12.8-2.4c-5-5.6-7.2-16.1-7.2-23.1c0-10.2,5-19.2,13.1-19.2
				c8.1,0,13.1,9,13.1,19.2c0,7.1-2.4,17.5-7.4,23.1c3.2,1.5,8,2.4,12.8,2.4c4.6,0,9.1-0.7,12.2-2.2c-3.2-3.8-4.7-8.7-4.7-12.8
				c0-7.1,4-12.7,10.3-12.7c6.2,0,10.2,5.6,10.2,12.7c0,4.1-1.5,9-4.7,12.8c2.8,1.2,6.2,1.8,10.2,1.8H685.3z M670.3,37.8
				c0-3.4-1.3-6.3-4.1-6.3c-2.8,0-4.1,2.9-4.1,6.3c0,4,1.6,8.7,4.1,10.5C668.7,46.5,670.3,41.8,670.3,37.8z M629.8,47.5
				c4.1-4.4,5.9-14.3,5.9-19.9c0-6.6-2.3-12.2-5.9-12.2c-3.7,0-6,5.6-6,12.2C623.7,33.2,625.5,43.1,629.8,47.5z M597.5,37.8
				c0-3.4-1.3-6.3-4.1-6.3s-4.1,2.9-4.1,6.3c0,4,1.6,8.7,4.1,10.5C595.9,46.5,597.5,41.8,597.5,37.8z"/>
			<path fill="#FFF58C" stroke="#FFF58C" stroke-width="4" stroke-miterlimit="10" d="M574,304.7v7.1c-5.6,0-9.4,0.6-12.2,1.8
				c3.1,3.8,4.7,8.7,4.7,12.8c0,7.1-4.1,12.7-10.5,12.7c-6.2,0-10.3-5.6-10.3-12.7c0-4.1,1.6-9,4.7-12.8c-3.4-1.5-7.7-2.2-12.1-2.2
				c-4.6,0-9.1,0.7-12.7,2.2c3.1,3.8,4.7,8.7,4.7,12.8c0,7.1-4.1,12.7-10.5,12.7c-6.2,0-10.3-5.6-10.3-12.7c0-4.1,1.6-9,4.7-12.8
				c-3.4-1.5-7.7-2.2-11.9-2.2c-4.4,0-9,0.7-12.5,2.2c3.1,3.8,4.7,8.7,4.7,12.8c0,7.1-4.1,12.7-10.5,12.7c-6.2,0-10.3-5.6-10.3-12.7
				c0-4.1,1.6-9,4.7-12.8c-3.4-1.5-7.7-2.2-12.1-2.2c-4.4,0-9,0.7-12.5,2.2c3.1,3.8,4.7,8.7,4.7,12.8c0,7.1-4.1,12.7-10.5,12.7
				c-6.2,0-10.3-5.6-10.3-12.7c0-4.1,1.6-9,4.7-12.8c-3.4-1.5-7.7-2.2-12.1-2.2c-4.4,0-9,0.7-12.5,2.2c3.1,3.8,4.7,8.7,4.7,12.8
				c0,7.1-4.1,12.7-10.5,12.7c-6.2,0-10.3-5.6-10.3-12.7c0-4.1,1.6-9,4.7-12.8c-3.4-1.5-7.7-2.2-11.9-2.2c-4.4,0-9,0.7-12.5,2.2
				c3.1,3.8,4.7,8.7,4.7,12.8c0,7.1-4.1,12.7-10.5,12.7c-6.2,0-10.3-5.6-10.3-12.7c0-4.1,1.6-9,4.7-12.8c-2.8-1.2-6.6-1.8-12.2-1.8
				v-7.1c8.4,0,13.7,1.5,17.8,4c4.9-2.9,11.2-4.3,17.7-4.3c6.5,0,13,1.3,18.1,4.3c4.9-2.9,11.3-4.3,17.8-4.3c6.5,0,13,1.3,18.1,4.3
				c4.9-2.9,11.4-4.3,17.8-4.3c6.5,0,13,1.3,18.1,4.3c4.9-2.9,11.2-4.3,17.7-4.3c6.5,0,13,1.3,18.1,4.3c4.9-2.9,11.5-4.3,18-4.3
				c6.5,0,13,1.3,18.1,4.3C560.3,306.2,565.6,304.7,574,304.7z M560,326.4c0-2.9-1.3-7.7-4-10.5c-2.7,2.8-3.8,7.5-3.8,10.5
				c0,3.1,1.8,6.3,3.8,6.3C558.3,332.7,560,329.5,560,326.4z M523.9,326.4c0-2.9-1.3-7.7-4-10.5c-2.7,2.8-3.8,7.5-3.8,10.5
				c0,3.1,1.8,6.3,3.8,6.3C522.2,332.7,523.9,329.5,523.9,326.4z M488.1,326.4c0-2.9-1.3-7.7-4-10.5c-2.6,2.8-3.8,7.5-3.8,10.5
				c0,3.1,1.8,6.3,3.8,6.3C486.3,332.7,488.1,329.5,488.1,326.4z M452.1,326.4c0-2.9-1.3-7.7-4-10.5c-2.6,2.8-3.8,7.5-3.8,10.5
				c0,3.1,1.8,6.3,3.8,6.3C450.4,332.7,452.1,329.5,452.1,326.4z M416.2,326.4c0-2.9-1.3-7.7-4-10.5c-2.7,2.8-3.8,7.5-3.8,10.5
				c0,3.1,1.8,6.3,3.8,6.3C414.4,332.7,416.2,329.5,416.2,326.4z M380.4,326.4c0-2.9-1.3-7.7-4-10.5c-2.7,2.8-3.8,7.5-3.8,10.5
				c0,3.1,1.8,6.3,3.8,6.3C378.6,332.7,380.4,329.5,380.4,326.4z"/>
			<path fill="#FFF58C" stroke="#FFF58C" stroke-width="4" stroke-miterlimit="10" d="M574,52.7v7.1c-8.4,0-13.7-1.5-18-4
				c-5.2,2.9-11.6,4.3-18.1,4.3c-6.5,0-13.1-1.3-18-4.3c-5.2,2.9-11.6,4.3-18.1,4.3c-6.5,0-12.8-1.3-17.7-4.3
				c-5.2,2.9-11.6,4.3-18.1,4.3c-6.5,0-13-1.3-17.8-4.3c-5.2,2.9-11.6,4.3-18.1,4.3c-6.5,0-13-1.3-17.8-4.3
				c-5.2,2.9-11.6,4.3-18.1,4.3c-6.5,0-12.8-1.3-17.7-4.3c-4.1,2.5-9.4,4-17.8,4v-7.1c5.6,0,9.4-0.6,12.2-1.8
				c-3.1-3.8-4.7-8.7-4.7-12.8c0-7.1,4.1-12.7,10.3-12.7c6.3,0,10.5,5.6,10.5,12.7c0,4.1-1.6,9-4.7,12.8c3.5,1.5,8.1,2.2,12.5,2.2
				c4.3,0,8.6-0.7,11.9-2.2c-3.1-3.8-4.7-8.7-4.7-12.8c0-7.1,4.1-12.7,10.3-12.7c6.3,0,10.5,5.6,10.5,12.7c0,4.1-1.6,9-4.7,12.8
				c3.5,1.5,8.1,2.2,12.5,2.2c4.4,0,8.7-0.7,12.1-2.2c-3.1-3.8-4.7-8.7-4.7-12.8c0-7.1,4.1-12.7,10.3-12.7c6.3,0,10.5,5.6,10.5,12.7
				c0,4.1-1.6,9-4.7,12.8c3.5,1.5,8.1,2.2,12.5,2.2c4.4,0,8.7-0.7,12.1-2.2c-3.1-3.8-4.7-8.7-4.7-12.8c0-7.1,4.1-12.7,10.3-12.7
				c6.3,0,10.5,5.6,10.5,12.7c0,4.1-1.6,9-4.7,12.8c3.5,1.5,8.1,2.2,12.5,2.2c4.3,0,8.6-0.7,11.9-2.2c-3.1-3.8-4.7-8.7-4.7-12.8
				c0-7.1,4.1-12.7,10.3-12.7c6.3,0,10.5,5.6,10.5,12.7c0,4.1-1.6,9-4.7,12.8c3.5,1.5,8.1,2.2,12.7,2.2c4.4,0,8.7-0.7,12.1-2.2
				c-3.1-3.8-4.7-8.7-4.7-12.8c0-7.1,4.1-12.7,10.3-12.7c6.3,0,10.5,5.6,10.5,12.7c0,4.1-1.6,9-4.7,12.8
				C564.6,52.1,568.4,52.7,574,52.7z M556.1,48.6c2.7-2.8,4-7.5,4-10.5c0-3.1-1.8-6.3-4-6.3c-2.1,0-3.8,3.2-3.8,6.3
				C552.2,41,553.4,45.8,556.1,48.6z M519.9,48.6c2.6-2.8,4-7.5,4-10.5c0-3.1-1.8-6.3-4-6.3c-2.1,0-3.8,3.2-3.8,6.3
				C516.1,41,517.3,45.8,519.9,48.6z M484.1,48.6c2.7-2.8,4-7.5,4-10.5c0-3.1-1.8-6.3-4-6.3c-2.1,0-3.8,3.2-3.8,6.3
				C480.3,41,481.5,45.8,484.1,48.6z M448.2,48.6c2.6-2.8,4-7.5,4-10.5c0-3.1-1.8-6.3-4-6.3c-2.1,0-3.8,3.2-3.8,6.3
				C444.3,41,445.5,45.8,448.2,48.6z M412.2,48.6c2.6-2.8,4-7.5,4-10.5c0-3.1-1.8-6.3-4-6.3c-2.1,0-3.8,3.2-3.8,6.3
				C408.4,41,409.5,45.8,412.2,48.6z M376.4,48.6c2.6-2.8,4-7.5,4-10.5c0-3.1-1.8-6.3-4-6.3c-2.1,0-3.8,3.2-3.8,6.3
				C372.6,41,373.7,45.8,376.4,48.6z"/>
			<path fill="#FFF58C" stroke="#FFF58C" stroke-width="4" stroke-miterlimit="10" d="M560,38.1c0,2.9-1.3,7.7-4,10.5
				c-2.7-2.8-3.8-7.5-3.8-10.5c0-3.1,1.8-6.3,3.8-6.3C558.3,31.8,560,35,560,38.1z"/>
			<path fill="#FFF58C" stroke="#FFF58C" stroke-width="4" stroke-miterlimit="10" d="M556.1,315.9c2.7,2.8,4,7.5,4,10.5
				c0,3.1-1.8,6.3-4,6.3c-2.1,0-3.8-3.2-3.8-6.3C552.2,323.5,553.4,318.7,556.1,315.9z"/>
			<path fill="#FFF58C" stroke="#FFF58C" stroke-width="4" stroke-miterlimit="10" d="M523.9,38.1c0,2.9-1.3,7.7-4,10.5
				c-2.7-2.8-3.8-7.5-3.8-10.5c0-3.1,1.8-6.3,3.8-6.3C522.2,31.8,523.9,35,523.9,38.1z"/>
			<path fill="#FFF58C" stroke="#FFF58C" stroke-width="4" stroke-miterlimit="10" d="M519.9,315.9c2.6,2.8,4,7.5,4,10.5
				c0,3.1-1.8,6.3-4,6.3c-2.1,0-3.8-3.2-3.8-6.3C516.1,323.5,517.3,318.7,519.9,315.9z"/>
			<path fill="#FFF58C" stroke="#FFF58C" stroke-width="4" stroke-miterlimit="10" d="M488.1,38.1c0,2.9-1.3,7.7-4,10.5
				c-2.6-2.8-3.8-7.5-3.8-10.5c0-3.1,1.8-6.3,3.8-6.3C486.3,31.8,488.1,35,488.1,38.1z"/>
			<path fill="#FFF58C" stroke="#FFF58C" stroke-width="4" stroke-miterlimit="10" d="M484.1,315.9c2.7,2.8,4,7.5,4,10.5
				c0,3.1-1.8,6.3-4,6.3c-2.1,0-3.8-3.2-3.8-6.3C480.3,323.5,481.5,318.7,484.1,315.9z"/>
			<path fill="#FFF58C" stroke="#FFF58C" stroke-width="4" stroke-miterlimit="10" d="M452.1,38.1c0,2.9-1.3,7.7-4,10.5
				c-2.6-2.8-3.8-7.5-3.8-10.5c0-3.1,1.8-6.3,3.8-6.3C450.4,31.8,452.1,35,452.1,38.1z"/>
			<path fill="#FFF58C" stroke="#FFF58C" stroke-width="4" stroke-miterlimit="10" d="M448.2,315.9c2.6,2.8,4,7.5,4,10.5
				c0,3.1-1.8,6.3-4,6.3c-2.1,0-3.8-3.2-3.8-6.3C444.3,323.5,445.5,318.7,448.2,315.9z"/>
			<path fill="#FFF58C" stroke="#FFF58C" stroke-width="4" stroke-miterlimit="10" d="M416.2,38.1c0,2.9-1.3,7.7-4,10.5
				c-2.7-2.8-3.8-7.5-3.8-10.5c0-3.1,1.8-6.3,3.8-6.3C414.4,31.8,416.2,35,416.2,38.1z"/>
			<path fill="#FFF58C" stroke="#FFF58C" stroke-width="4" stroke-miterlimit="10" d="M412.2,315.9c2.6,2.8,4,7.5,4,10.5
				c0,3.1-1.8,6.3-4,6.3c-2.1,0-3.8-3.2-3.8-6.3C408.4,323.5,409.5,318.7,412.2,315.9z"/>
			<path fill="#FFF58C" stroke="#FFF58C" stroke-width="4" stroke-miterlimit="10" d="M380.4,38.1c0,2.9-1.3,7.7-4,10.5
				c-2.7-2.8-3.8-7.5-3.8-10.5c0-3.1,1.8-6.3,3.8-6.3C378.6,31.8,380.4,35,380.4,38.1z"/>
			<path fill="#FFF58C" stroke="#FFF58C" stroke-width="4" stroke-miterlimit="10" d="M376.4,315.9c2.6,2.8,4,7.5,4,10.5
				c0,3.1-1.8,6.3-4,6.3c-2.1,0-3.8-3.2-3.8-6.3C372.6,323.5,373.7,318.7,376.4,315.9z"/>
			<rect x="271.9" y="304.7" fill="#FFF58C" stroke="#FFF58C" stroke-width="4" stroke-miterlimit="10" width="86.7" height="7.1"/>
			<rect x="271.9" y="52.7" fill="#FFF58C" stroke="#FFF58C" stroke-width="4" stroke-miterlimit="10" width="86.7" height="7.1"/>
			<path fill="#FFF58C" stroke="#FFF58C" stroke-width="4" stroke-miterlimit="10" d="M271.9,304.7v7.1h-74.7
				c-4.3,0-7.5,0.7-10.3,1.9c3.1,4,4.6,8.7,4.6,12.7c0,6.9-4.1,13-10.3,13c-6.3,0-10.3-5.9-10.3-13c0-4,1.5-8.7,4.7-12.7
				c-2.6-1-6.2-1.9-10.2-1.9H90.7v-7.1h74.6c6.8,0,11.8,1.6,15.8,4.1c4-2.4,9.3-4.1,16.1-4.1H271.9z M185.1,326.4
				c0-2.9-1.3-7.5-3.7-10.2c-2.6,2.8-4.1,7.4-4.1,10.3c0,3.2,1.8,6.6,3.8,6.6S185.1,329.8,185.1,326.4z"/>
			<path fill="#FFF58C" stroke="#FFF58C" stroke-width="4" stroke-miterlimit="10" d="M271.9,52.7v7.1h-74.7
				c-6.8,0-12.1-1.8-16.1-4.1c-4,2.5-9,4.1-15.8,4.1H90.7v-7.1h74.6c4,0,7.5-0.9,10.2-1.9c-3.2-4-4.7-8.7-4.7-12.7
				c0-7.1,4-13,10.3-13c6.2,0,10.3,6,10.3,13c0,4-1.5,8.7-4.6,12.7c2.8,1.2,6,1.9,10.3,1.9H271.9z M181.4,48.3
				c2.4-2.7,3.7-7.2,3.7-10.2c0-3.4-1.9-6.8-4-6.8s-3.8,3.4-3.8,6.6C177.2,40.9,178.7,45.5,181.4,48.3z"/>
			<path fill="#FFF58C" stroke="#FFF58C" stroke-width="4" stroke-miterlimit="10" d="M108.6,145.4c15.9,4.4,24.5,21.5,24.5,37.6
				c0,16.4-8.5,33.2-24.5,37.4c-5,13.6-20.2,23.3-34.2,24.5v44.7c0,10.5,5.2,15.2,16.4,15.2v7.1c-16.1,0-23.3-7.1-23.3-22.3v-44.7
				c-14.7-1.3-29.5-10.3-33.9-24.5C17.5,216,9.1,199.2,9.1,183c0-16.1,8.4-33.2,24.5-37.6c4.6-13.7,19.5-23.1,33.9-24.3V74.9
				c0-15.3,7.2-22.3,23.3-22.3v7.1c-11.2,0-16.4,4.6-16.4,15.2v46.1C89,122.3,103.8,131.2,108.6,145.4z M126.1,183
				c0-11.8-5.9-24.8-16.4-29.6c0,12.4-6.6,28.3-21.5,28.3c-10.5,0-15.6-6.9-15.6-14.9c0-10.2,9.1-22.4,27.4-22.4h0.6
				c-4.9-10.6-17.7-16.5-29.6-16.5c-11.9,0-24.8,5.9-29.8,16.5h0.9c18.3,0,27.4,12.2,27.4,22.4c0,8-5.2,14.9-15.8,14.9
				c-14.9,0-21.4-15.9-21.4-27.6c0-0.3-0.1-0.3-0.1-0.3s0.1-0.1,0.1-0.4C22.2,158.5,16,171.3,16,183c0,11.8,6.2,24.6,16.4,29.8
				c0-12.7,6.5-28.6,21.4-28.6c10.2,0,15.8,7.4,15.8,15.8c0,10-8.4,21.5-27.4,21.5c-0.4,0-0.4,0.1-0.4,0.1c-0.1,0-0.1-0.1-0.4-0.1
				c5,10.6,18,16.5,29.8,16.5c12.1,0,24.8-5.9,29.6-16.5H100c-19.2,0-27.4-11.5-27.4-21.5c0-8.4,5.5-15.8,15.6-15.8
				c14.9,0,21.5,15.9,21.5,28.4C120.2,207.7,126.1,194.9,126.1,183z M102.7,214.4v-2.7c0-8.8-4.3-20.6-14.4-20.6
				c-5.6,0-8.7,4.1-8.7,8.9c0,6.6,6,14.6,20.5,14.6C100.9,214.5,101.6,214.5,102.7,214.4z M102.7,154.1v-2.7
				c-0.7-0.1-2.1-0.1-2.7-0.1c-13.6,0-20.5,8.5-20.5,15.5c0,4.4,2.9,8,8.7,8C98.4,174.7,102.7,162.9,102.7,154.1z M53.7,174.7
				c5.9,0,8.8-3.5,8.8-8c0-6.9-6.9-15.5-20.5-15.5c-0.7,0-2.1,0-2.8,0.1v2.7C39.3,162.9,43.7,174.7,53.7,174.7z M62.6,199.9
				c0-4.7-3.1-8.9-8.8-8.9c-10,0-14.4,11.8-14.4,20.6v2.8h2.8C56.4,214.5,62.6,206.6,62.6,199.9z"/>
			<path fill="#FFF58C" stroke="#FFF58C" stroke-width="4" stroke-miterlimit="10" d="M102.7,211.7v2.7c-1,0.1-1.8,0.1-2.7,0.1
				c-14.4,0-20.5-8-20.5-14.6c0-4.7,3.1-8.9,8.7-8.9C98.4,191.1,102.7,202.9,102.7,211.7z"/>
			<path fill="#FFF58C" stroke="#FFF58C" stroke-width="4" stroke-miterlimit="10" d="M102.7,151.4v2.7c0,8.8-4.3,20.6-14.4,20.6
				c-5.8,0-8.7-3.5-8.7-8c0-6.9,6.9-15.5,20.5-15.5C100.6,151.3,101.9,151.3,102.7,151.4z"/>
			<path fill="#FFF58C" stroke="#FFF58C" stroke-width="4" stroke-miterlimit="10" d="M62.6,166.8c0,4.4-2.9,8-8.8,8
				c-10,0-14.4-11.8-14.4-20.6v-2.7c0.7-0.1,2.1-0.1,2.8-0.1C55.6,151.3,62.6,159.8,62.6,166.8z"/>
			<path fill="#FFF58C" stroke="#FFF58C" stroke-width="4" stroke-miterlimit="10" d="M53.7,191.1c5.8,0,8.8,4.1,8.8,8.9
				c0,6.6-6.2,14.6-20.5,14.6h-2.8v-2.8C39.3,202.9,43.7,191.1,53.7,191.1z"/>
		</g>
	</g>
</g>
</svg>
