<svg version="1.1" xmlns="http://www.w3.org/2000/svg" xmlns:xlink="http://www.w3.org/1999/xlink" x="0px" y="0px"
	 viewBox="-2 0 86 90" xml:space="preserve">
   <defs>
     <g id="port-square">
      	<path fill="#FFF58C" d="M0,0v79h79V0H0z M18.9,39.2c0-11.5,9.4-20.9,20.9-20.9s20.9,9.4,20.9,20.9s-9.4,20.9-20.9,20.9S18.9,50.8,18.9,39.2z"/>
      	<path fill="none" d="M60.7,39.2c0-11.5-9.4-20.9-20.9-20.9s-20.9,9.4-20.9,20.9s9.4,20.9,20.9,20.9S60.7,50.8,60.7,39.2z"/>
     </g>
     <g id="port-square-shadow">
      	<path fill="#91D745" d="M0,0v79h79V0H0z M18.9,39.2c0-11.5,9.4-20.9,20.9-20.9s20.9,9.4,20.9,20.9s-9.4,20.9-20.9,20.9S18.9,50.8,18.9,39.2z"/>
      	<path fill="none" d="M60.7,39.2c0-11.5-9.4-20.9-20.9-20.9s-20.9,9.4-20.9,20.9s9.4,20.9,20.9,20.9S60.7,50.8,60.7,39.2z"/>
     </g>
   </defs>

   <use xlink:href="#port-square-shadow" x="-2" y="2" />
   <use xlink:href="#port-square" x="0" y="0" />
</svg>
